<svg width="367" height="360" viewBox="0 0 367 360" fill="none" xmlns="http://www.w3.org/2000/svg">
<path d="M254.677 40.7476L322.669 73.3038H238.996L186.827 7.88606L254.673 40.7456L254.677 40.7476ZM185.249 9.11532L236.438 73.3038H199.9L185.249 9.11532ZM200.356 75.3038H238.033L261.524 104.76L212.471 128.383L200.356 75.3038ZM183.3 9.56037L197.849 73.3038H168.751L183.3 9.56037ZM168.294 75.3038H198.305L210.623 129.273L183.3 142.431L155.976 129.273L168.294 75.3038ZM181.35 9.11532L166.699 73.3038H130.161L181.35 9.11532ZM128.566 75.3038H166.243L154.128 128.383L105.075 104.76L128.566 75.3038ZM179.772 7.88606L127.603 73.3038H43.9305L111.922 40.7476L111.926 40.7456L179.772 7.88606ZM22.9212 152.351L39.5316 78.8199L58.1505 160.394L5.98156 225.812L22.9202 152.356L22.9212 152.351ZM7.5311 227.077L58.7197 162.888L66.8502 198.51L7.5311 227.077ZM68.6985 197.62L60.3147 160.888L83.8056 131.432L117.751 173.998L68.6985 197.62ZM8.39887 228.879L67.3067 200.51L73.7816 228.879H8.39887ZM75.833 228.879L69.155 199.62L119.03 175.602L137.938 199.312L131.19 228.879H75.833ZM8.39887 230.879H74.2381L82.3686 266.501L8.39887 230.879ZM84.6733 267.611L76.2895 230.879H130.734L118.619 283.958L84.6733 267.611ZM7.55151 232.691L82.9378 268.995L101.557 350.569L54.6871 291.527L54.6843 291.523L7.55151 232.691ZM183.297 353.462L107.913 353.631L183.3 317.326L258.686 353.631L183.302 353.462H183.297ZM259.574 351.838L185.604 316.217L218.524 300.363L259.574 351.838ZM217.245 298.759L183.3 315.107L149.354 298.759L183.3 256.193L217.245 298.759ZM261.138 350.591L220.372 299.473L246.589 286.848L261.138 350.591ZM246.132 284.848L219.093 297.869L184.579 254.589L203.487 230.879H233.814L246.132 284.848ZM263.088 350.146L248.437 285.958L281.357 270.105L263.088 350.146ZM281.926 267.611L247.98 283.958L235.865 230.879H290.31L281.926 267.611ZM265.042 350.569L283.661 268.995L359.048 232.691L311.915 291.523L311.912 291.527L265.042 350.569ZM343.679 152.356L360.618 225.812L308.449 160.394L327.067 78.8199L343.678 152.351L343.679 152.356ZM325.123 78.3527L306.854 158.394L284.073 129.828L325.123 78.3527ZM282.794 131.432L306.284 160.888L297.901 197.62L248.848 173.998L282.794 131.432ZM323.559 77.1058L282.794 128.224L264.651 105.474L323.559 77.1058ZM262.803 106.364L281.514 129.828L247 173.108L219.676 159.949L212.928 130.383L262.803 106.364ZM185.604 143.541L211.08 131.273L217.372 158.84L185.604 143.541ZM183.3 144.651L217.941 161.333L226.496 198.818L202.524 228.879H164.075L140.103 198.818L148.658 161.333L183.3 144.651ZM205.082 228.879L227.066 201.312L233.358 228.879H205.082ZM235.409 228.879L228.661 199.312L247.569 175.602L297.444 199.62L290.766 228.879H235.409ZM284.23 266.501L292.361 230.879H358.2L284.23 266.501ZM307.879 162.888L359.068 227.077L299.749 198.51L307.879 162.888ZM358.2 228.879H292.817L299.292 200.51L358.2 228.879ZM245.721 174.712L228.091 196.818L220.246 162.443L245.721 174.712ZM165.67 230.879H200.929L183.3 252.986L165.67 230.879ZM163.112 230.879L182.02 254.589L147.506 297.869L120.467 284.848L132.785 230.879H163.112ZM120.01 286.848L146.227 299.473L105.461 350.591L120.01 286.848ZM180.995 316.217L107.025 351.838L148.075 300.363L180.995 316.217ZM103.512 350.146L85.2426 270.105L118.162 285.958L103.512 350.146ZM161.517 228.879H133.242L139.533 201.312L161.517 228.879ZM146.354 162.443L138.508 196.818L120.878 174.712L146.354 162.443ZM146.923 159.949L119.599 173.108L85.0846 129.828L103.796 106.364L153.671 130.383L146.923 159.949ZM101.948 105.474L83.8056 128.224L43.0401 77.1058L101.948 105.474ZM59.7454 158.394L41.4764 78.3527L82.5265 129.828L59.7454 158.394ZM43.9079 75.3038H126.008L103.227 103.87L43.9079 75.3038ZM149.228 158.84L155.519 131.273L180.995 143.541L149.228 158.84ZM263.372 103.87L240.591 75.3038H322.691L263.372 103.87Z" stroke="#5573A0" stroke-width="2"/>
<path fill-rule="evenodd" clip-rule="evenodd" d="M191.528 8.06113C191.528 12.5132 187.918 16.1223 183.466 16.1223C179.014 16.1223 175.405 12.5132 175.405 8.06113C175.405 3.60909 179.014 0 183.466 0C187.918 0 191.528 3.60909 191.528 8.06113ZM48.6574 75.9576C48.6574 80.4096 45.0483 84.0187 40.5963 84.0187C36.1442 84.0187 32.5352 80.4096 32.5352 75.9576C32.5352 71.5056 36.1442 67.8965 40.5963 67.8965C45.0483 67.8965 48.6574 71.5056 48.6574 75.9576ZM326.338 84.0187C330.79 84.0187 334.4 80.4096 334.4 75.9576C334.4 71.5056 330.79 67.8965 326.338 67.8965C321.886 67.8965 318.277 71.5056 318.277 75.9576C318.277 80.4096 321.886 84.0187 326.338 84.0187ZM366.932 230.145C366.932 234.597 363.323 238.206 358.871 238.206C354.419 238.206 350.81 234.597 350.81 230.145C350.81 225.693 354.419 222.084 358.871 222.084C363.323 222.084 366.932 225.693 366.932 230.145ZM8.06113 238.206C12.5132 238.206 16.1223 234.597 16.1223 230.145C16.1223 225.693 12.5132 222.084 8.06113 222.084C3.60909 222.084 0 225.693 0 230.145C0 234.597 3.60909 238.206 8.06113 238.206ZM113.726 351.799C113.726 356.251 110.117 359.861 105.665 359.861C101.213 359.861 97.6035 356.251 97.6035 351.799C97.6035 347.347 101.213 343.738 105.665 343.738C110.117 343.738 113.726 347.347 113.726 351.799ZM261.27 359.861C265.722 359.861 269.331 356.251 269.331 351.799C269.331 347.347 265.722 343.738 261.27 343.738C256.818 343.738 253.209 347.347 253.209 351.799C253.209 356.251 256.818 359.861 261.27 359.861Z" fill="#4989A7"/>
</svg>
