<svg width="24" height="24" viewBox="0 0 24 24" fill="none" xmlns="http://www.w3.org/2000/svg">
<path d="M20 6C20 6 17.707 4.206 15 4L14.756 4.488C17.204 5.087 18.327 5.945 19.5 7C17.477 5.968 15.48 5 12 5C8.52 5 6.522 5.968 4.5 7C5.673 5.946 7.009 4.992 9.244 4.488L9 4C6.16 4.269 4 6 4 6C4 6 1.44 9.713 1 17C3.581 19.977 7.5 20 7.5 20L8.32 18.907C6.64884 18.3359 5.15844 17.333 4 16C5.619 17.225 8.063 18.5 12 18.5C15.938 18.5 18.381 17.225 20 16C18.8416 17.333 17.3512 18.3359 15.68 18.907L16.5 20C16.5 20 20.419 19.977 23 17C22.56 9.713 20 6 20 6ZM8.75 15C7.784 15 7 14.104 7 13C7 11.896 7.784 11 8.75 11C9.716 11 10.5 11.896 10.5 13C10.5 14.104 9.716 15 8.75 15ZM15.25 15C14.284 15 13.5 14.104 13.5 13C13.5 11.896 14.284 11 15.25 11C16.216 11 17 11.896 17 13C17 14.104 16.216 15 15.25 15Z" fill="#F4FCFF"/>
</svg>
