<svg width="363" height="361" viewBox="0 0 363 361" fill="none" xmlns="http://www.w3.org/2000/svg">
<path d="M228.115 22.5865L269.089 34.6979H224.557L187.093 10.6217L228.111 22.5855L228.115 22.5865ZM186.049 12.3281L220.857 34.6979H205.433L186.049 12.3281ZM207.166 36.6979H223.969L238.105 45.7826L219.716 51.1821L207.166 36.6979ZM184.538 13.6378L202.786 34.6979H194.155L184.538 13.6378ZM195.069 36.6979H204.519L217.607 51.8015L203.816 55.8509L195.069 36.6979ZM182.718 14.4686L191.957 34.6979H185.627L182.718 14.4686ZM185.914 36.6979H192.87L201.877 56.4202L189.282 60.1185L185.914 36.6979ZM180.739 14.7532L183.606 34.6979H177.871L180.739 14.7532ZM177.584 36.6979H183.894L187.343 60.6877L180.739 62.627L174.134 60.6877L177.584 36.6979ZM178.759 14.4686L175.851 34.6979H169.521L178.759 14.4686ZM168.607 36.6979H175.563L172.196 60.1185L159.6 56.4202L168.607 36.6979ZM176.94 13.6378L167.322 34.6979H158.691L176.94 13.6378ZM156.958 36.6979H166.409L157.662 55.8509L143.871 51.8015L156.958 36.6979ZM175.428 12.3281L156.045 34.6979H140.62L175.428 12.3281ZM137.508 36.6979H154.312L141.761 51.1821L123.372 45.7826L137.508 36.6979ZM174.384 10.6217L136.921 34.6979H92.3882L133.363 22.5865L133.366 22.5855L174.384 10.6217ZM227.669 36.6979H269.045L240.645 45.037L227.669 36.6979ZM242.871 46.4678L269.609 38.6168L250.132 51.1339L242.871 46.4678ZM240.332 47.2133L248.282 52.3227L230.569 63.7063L221.156 52.8438L240.332 47.2133ZM231.892 65.2333L250.132 53.5113L255.983 57.2719L240.488 75.154L231.892 65.2333ZM219.047 53.4632L228.869 64.7987L216.094 73.0083L210.963 71.5017L204.655 57.6889L219.047 53.4632ZM218.634 73.7539L230.192 66.3257L239.165 76.681L237.023 79.1534L218.634 73.7539ZM212.062 73.9089L213.868 74.4391L212.659 75.2159L212.062 73.9089ZM213.499 77.0538L216.407 75.1846L235.583 80.8151L222.246 96.2069L213.499 77.0538ZM209.523 73.1633L210.96 76.3083L193.246 87.6919L190.348 67.5329L209.523 73.1633ZM193.559 89.8682L211.799 78.1462L220.806 97.8685L210.527 109.731H202.525L195.793 105.405L193.559 89.8682ZM188.238 66.9134L191.397 88.8806L180.739 95.73L170.081 88.8806L173.239 66.9134L180.739 64.7114L188.238 66.9134ZM182.588 96.9187L191.709 91.0569L193.567 103.974L182.588 96.9187ZM169.768 91.0569L178.889 96.9187L167.911 103.974L169.768 91.0569ZM167.534 106.594L180.739 98.1074L193.943 106.594L194.394 109.731H167.083L167.534 106.594ZM167.918 89.8682L165.684 105.405L158.953 109.731H150.951L140.672 97.8686L149.678 78.1462L167.918 89.8682ZM162.652 109.731L165.308 108.024L165.062 109.731H162.652ZM152.684 111.731H155.841L153.813 113.034L152.684 111.731ZM155.136 114.561L159.54 111.731H164.775L163.054 123.699L155.136 114.561ZM150.037 111.731L152.113 114.127L129.137 128.892L127.82 126.009L134.341 111.731H150.037ZM129.976 130.73L153.436 115.654L162.677 126.319L159.211 150.43L135.839 143.567L129.976 130.73ZM126.721 128.416L127.437 129.985L125.409 131.288L126.721 128.416ZM123.873 134.653L128.277 131.823L133.299 142.821L121.698 139.415L123.873 134.653ZM125.622 126.009L122.297 133.288L115.566 137.614L100.505 133.192L97.4194 111.731H119.101L125.622 126.009ZM118.105 138.36L120.761 136.653L119.759 138.846L118.105 138.36ZM100.818 135.368L113.339 139.045L102.361 146.1L100.818 135.368ZM102.674 148.277L115.878 139.791L118.92 140.684L107.574 165.527L104.908 163.813L102.674 148.277ZM98.7083 134.749L100.511 147.289L89.8534 154.138L71.1834 142.14L72.2957 134.403L77.4142 128.496L98.7083 134.749ZM91.703 155.327L100.824 149.465L102.681 162.383L91.703 155.327ZM70.8705 144.316L88.0037 155.327L70.2904 166.711L68.0263 164.098L70.8705 144.316ZM71.6136 168.238L89.8534 156.516L103.058 165.002L104.197 172.923L100.873 180.202L85.8121 184.624L71.6136 168.238ZM67.6497 166.717L68.5906 167.803L67.3819 168.58L67.6497 166.717ZM67.0053 171.199L69.9138 169.33L83.7024 185.243L64.1611 190.981L67.0053 171.199ZM65.9167 164.717L65.1556 170.011L52.3812 178.22L46.1504 164.577L55.9726 153.241L65.9167 164.717ZM53.2206 180.058L64.779 172.63L62.0515 191.601L58.9126 192.522L53.2206 180.058ZM44.7105 166.238L50.6814 179.313L32.9681 190.696L31.6231 181.342L44.7105 166.238ZM33.281 192.873L51.5207 181.151L56.9739 193.091L34.2709 199.758L33.281 192.873ZM29.8901 183.342L31.1184 191.885L11.6414 204.402L29.8901 183.342ZM29.5135 180.723L10.13 203.092L27.3184 165.455L29.5135 180.723ZM31.2465 178.723L28.8551 162.09L35.8356 146.805L43.7972 164.238L31.2465 178.723ZM34.7362 144.398L28.3286 158.428L22.4402 117.473L34.7362 144.398ZM45.237 162.577L36.9349 144.398L40.8608 135.801L54.6494 151.714L45.237 162.577ZM39.421 134.14L35.8356 141.991L24.2594 116.642L39.421 134.14ZM55.9726 150.187L41.7742 133.801L44.6637 127.474L64.5689 140.267L55.9726 150.187ZM42.9639 126.382L40.3343 132.14L25.7709 115.333L42.9639 126.382ZM65.8921 138.74L45.503 125.636L48.1244 119.896L71.3792 126.724L70.3997 133.538L65.8921 138.74ZM46.1857 119.327L43.8032 124.544L26.8522 113.65L46.1857 119.327ZM71.6668 124.724L48.9638 118.058L51.8533 111.731H73.535L71.6668 124.724ZM49.6546 111.731L47.0251 117.489L27.4157 111.731H49.6546ZM73.8225 109.731H52.7667L56.6926 101.135L75.868 95.5042L73.8225 109.731ZM54.1534 101.88L50.568 109.731H27.4157L54.1534 101.88ZM76.1809 93.3279L57.7919 98.7274L64.7724 83.4423L78.9085 74.3576L76.1809 93.3279ZM61.6603 85.4423L55.2527 99.473L26.8522 107.812L61.6603 85.4423ZM79.2851 71.7381L66.3091 80.0773L83.4975 42.4399L79.2851 71.7381ZM81.5114 70.3074L85.4772 42.7245L88.7721 65.6412L81.5114 70.3074ZM81.1347 72.9268L89.085 67.8175L92.0816 88.659L78.2906 92.7084L81.1347 72.9268ZM94.0203 88.0898L90.9347 66.6288L96.7861 62.8683L106.615 84.3915L94.0203 88.0898ZM77.9777 94.8848L92.3691 90.659L94.5302 105.689L91.0281 109.731H75.8431L77.9777 94.8848ZM96.2632 103.689L94.3078 90.0898L107.455 86.2295L108.814 89.2052L96.2632 103.689ZM93.6745 109.731L94.9068 108.309L95.1113 109.731H93.6745ZM97.1318 109.731L96.6398 106.309L109.727 91.2052L118.188 109.731H97.1318ZM126.721 123.602L121.3 111.731H132.142L126.721 123.602ZM133.055 109.731H120.386L111.167 89.5436L116.285 83.6366L123.785 81.4345L138.318 98.2069L133.055 109.731ZM148.304 109.731H135.254L139.758 99.8686L148.304 109.731ZM147.979 77.0538L139.232 96.2069L125.895 80.8151L145.07 75.1846L147.979 77.0538ZM142.844 73.7539L124.455 79.1534L122.312 76.681L131.285 66.3257L142.844 73.7539ZM129.586 65.2333L120.989 75.154L105.494 57.2719L111.346 53.5113L129.586 65.2333ZM103.795 58.3643L119.666 76.681L115.159 81.883L108.554 83.8222L98.486 61.7759L103.795 58.3643ZM109.496 52.3226L104.171 55.7448L90.7876 40.2994L109.496 52.3226ZM111.346 51.1339L91.8689 38.6169L118.607 46.4678L111.346 51.1339ZM133.809 36.6979L120.833 45.037L92.4323 36.6979H133.809ZM81.6966 41.5689L63.1971 82.0773L25.7338 106.153L53.6559 73.8122L53.6583 73.8095L81.6966 41.5689ZM27.7805 253.779L10.101 214.882L39.2637 248.537L45.6014 292.617L27.782 253.783L27.7805 253.779ZM47.5748 292.288L41.6863 251.333L51.7872 262.99L47.5748 292.288ZM52.1638 260.371L41.1598 247.671L38.7684 231.039L54.8914 241.4L52.1638 260.371ZM49.5544 292.573L53.5202 264.99L59.1722 271.513L49.5544 292.573ZM60.0856 269.513L53.8968 262.371L56.741 242.589L68.8325 250.36L60.0856 269.513ZM51.3737 293.404L60.6121 273.174L64.7572 277.958L51.3737 293.404ZM66.0804 276.431L61.5254 271.174L70.5323 251.452L81.5754 258.549L66.0804 276.431ZM52.8851 294.713L66.0804 279.485L69.8362 283.82L52.8851 294.713ZM71.536 282.727L67.4036 277.958L83.2752 259.641L89.0657 263.363L91.9251 269.624L71.536 282.727ZM53.9665 296.396L71.1594 285.347L75.3046 290.13L53.9665 296.396ZM77.4142 289.511L72.8592 284.254L92.7645 271.462L98.2176 283.403L77.4142 289.511ZM54.53 298.315L76.7444 291.792L82.3964 298.315H54.53ZM85.0428 298.315L78.854 291.173L99.057 285.241L105.028 298.315H85.0428ZM54.53 300.315H84.1294L94.2303 311.972L54.53 300.315ZM97.7798 313.014L86.7758 300.315H105.941L113.903 317.748L97.7798 313.014ZM53.9241 302.221L96.6529 314.768L125.816 348.423L89.8298 325.388L89.8268 325.386L53.9241 302.221ZM180.737 352.081L138.01 352.004L180.739 339.458L223.467 352.004L180.74 352.081H180.737ZM223.989 350.072L184.288 338.415L199.088 334.07L223.989 350.072ZM196.862 332.639L180.739 337.373L164.616 332.639L180.739 322.277L196.862 332.639ZM225.07 348.39L201.627 333.324L209.908 330.893L225.07 348.39ZM208.468 329.231L199.401 331.893L182.588 321.089L194.68 313.318L208.468 329.231ZM226.581 347.08L212.018 330.273L218.091 328.49L226.581 347.08ZM217.252 326.652L210.578 328.611L196.38 312.226L207.423 305.129L217.252 326.652ZM228.401 346.249L220.03 327.921L225.533 326.305L228.401 346.249ZM225.245 324.305L219.191 326.083L209.123 304.036L214.913 300.315H221.796L225.245 324.305ZM230.38 345.965L227.472 325.736L233.545 323.952L230.38 345.965ZM233.858 321.776L227.184 323.736L223.817 300.315H236.944L233.858 321.776ZM232.36 346.249L235.655 323.333L243.936 320.901L232.36 346.249ZM245.035 318.494L235.968 321.156L238.964 300.315H253.337L245.035 318.494ZM234.179 347.08L246.475 320.156L261.275 315.81L234.179 347.08ZM263.698 313.014L247.575 317.748L255.536 300.315H274.702L263.698 313.014ZM235.662 348.423L264.824 314.768L307.553 302.221L271.651 325.386L271.648 325.388L235.662 348.423ZM333.695 253.783L315.876 292.617L322.214 248.537L351.376 214.882L333.697 253.779L333.695 253.783ZM349.836 213.605L322.74 244.875L324.935 229.608L349.836 213.605ZM322.709 231.039L320.318 247.671L309.314 260.371L306.586 241.4L322.709 231.039ZM348.755 211.923L325.312 226.988L326.54 218.445L348.755 211.923ZM324.431 219.065L323.086 228.419L306.273 239.224L304.228 224.997L324.431 219.065ZM348.191 210.004L326.853 216.269L327.754 210.004H348.191ZM325.733 210.004L324.743 216.889L303.94 222.997L302.072 210.004H325.733ZM348.191 208.004H328.041L328.858 202.327L348.191 208.004ZM326.919 201.758L326.021 208.004H301.784L300.805 201.191L303.664 194.929L326.919 201.758ZM348.755 206.085L329.145 200.327L330.046 194.061L348.755 206.085ZM328.196 192.873L327.206 199.758L304.503 193.091L309.957 181.151L328.196 192.873ZM349.836 204.402L330.359 191.885L331.587 183.342L349.836 204.402ZM329.854 181.342L328.509 190.696L310.796 179.313L316.767 166.238L329.854 181.342ZM351.347 203.092L331.964 180.723L334.159 165.455L351.347 203.092ZM332.622 162.09L330.231 178.723L317.68 164.238L325.642 146.805L332.622 162.09ZM353.185 202.302L334.685 161.793L341.023 117.714L347.18 159.995L347.18 159.999L353.185 202.302ZM307.821 73.8122L335.744 106.153L298.28 82.0773L279.781 41.5689L307.819 73.8095L307.821 73.8122ZM277.98 42.4399L295.168 80.0773L282.192 71.7382L277.98 42.4399ZM282.569 74.3576L296.705 83.4423L303.685 98.7274L285.296 93.3279L282.569 74.3576ZM276 42.7245L279.966 70.3074L272.705 65.6412L276 42.7245ZM272.392 67.8175L280.343 72.9268L283.187 92.7084L269.396 88.659L272.392 67.8175ZM274.021 42.4399L270.856 64.4525L265.531 61.0303L274.021 42.4399ZM264.691 62.8683L270.543 66.6288L267.457 88.0898L254.862 84.3915L264.691 62.8683ZM272.201 41.6091L263.831 59.9379L259.006 56.8372L272.201 41.6091ZM257.683 58.3643L262.991 61.7759L252.923 83.8223L246.319 81.883L241.811 76.681L257.683 58.3643ZM239.132 79.7728L240.488 78.2081L242.769 80.8408L239.132 79.7728ZM237.692 81.4345L245.192 83.6366L250.31 89.5436L241.091 109.731H228.422L223.159 98.2069L237.692 81.4345ZM243.29 109.731L251.75 91.2052L264.838 106.309L264.346 109.731H243.29ZM265.214 103.689L252.664 89.2052L254.023 86.2295L267.17 90.0898L265.214 103.689ZM266.366 109.731L266.571 108.309L267.803 109.731H266.366ZM270.449 109.731L266.947 105.689L269.108 90.659L283.5 94.8848L285.634 109.731H270.449ZM266.079 111.731H269.536L282.623 126.835L263.082 132.573L266.079 111.731ZM284.733 126.215L272.182 111.731H285.922L287.872 125.294L284.733 126.215ZM262.769 134.749L284.063 128.496L289.182 134.403L290.294 142.14L271.624 154.138L260.966 147.289L262.769 134.749ZM288.655 130.742L286.173 127.877L288.159 127.294L288.655 130.742ZM292.144 140.951L291.604 137.199L293.885 139.832L292.144 140.951ZM295.585 138.74L291.078 133.538L290.098 126.724L313.353 119.896L315.974 125.636L295.585 138.74ZM292.457 143.128L295.209 141.359L304.182 151.714L295.184 162.098L292.457 143.128ZM305.505 150.187L296.908 140.267L316.814 127.474L319.703 133.801L305.505 150.187ZM295.561 164.717L305.505 153.241L315.327 164.577L309.096 178.22L296.322 170.011L295.561 164.717ZM316.24 162.577L306.828 151.714L320.617 135.801L324.542 144.398L316.24 162.577ZM333.149 158.428L326.741 144.398L339.037 117.473L333.149 158.428ZM299.817 85.4423L334.625 107.812L306.225 99.473L299.817 85.4423ZM307.324 101.88L334.062 109.731H310.909L307.324 101.88ZM304.785 101.135L308.711 109.731H287.655L285.609 95.5042L304.785 101.135ZM287.942 111.731H309.624L312.514 118.058L289.811 124.724L287.942 111.731ZM314.452 117.489L311.823 111.731H334.062L314.452 117.489ZM317.674 124.544L315.292 119.327L334.625 113.65L317.674 124.544ZM318.513 126.382L335.706 115.333L321.143 132.14L318.513 126.382ZM325.642 141.991L322.056 134.14L337.218 116.642L325.642 141.991ZM296.698 172.63L308.257 180.058L302.565 192.522L299.426 191.601L296.698 172.63ZM299.739 193.777L301.725 194.36L300.278 197.529L299.739 193.777ZM297.629 193.157L298.742 200.894L295.495 208.004H273.302L268.039 196.48L276.335 186.905L297.629 193.157ZM274.215 210.004H294.581L286.279 228.183L282.962 229.157L274.215 210.004ZM288.818 227.437L296.78 210.004H300.051L302.001 223.566L288.818 227.437ZM283.801 230.995L285.18 230.59L284.398 232.302L283.801 230.995ZM285.497 234.709L287.719 229.844L302.289 225.566L304.423 240.413L291.805 248.522L285.497 234.709ZM281.862 231.564L283.299 234.709L274.997 252.888L261.66 237.496L281.862 231.564ZM276.436 254.55L284.398 237.116L290.106 249.614L278.579 257.022L276.436 254.55ZM259.55 238.116L274.083 254.888L270.836 261.998L264.261 266.223L245.591 254.225L247.394 241.685L259.55 238.116ZM273.948 259.998L275.523 256.55L276.879 258.114L273.948 259.998ZM266.111 267.412L269.3 265.363L267.852 268.532L266.111 267.412ZM269.552 269.624L272.412 263.363L278.202 259.641L294.074 277.958L289.941 282.727L269.552 269.624ZM264.261 268.601L267.013 270.37L261.321 282.833L248.138 278.962L264.261 268.601ZM263.26 283.403L268.713 271.462L288.618 284.254L284.063 289.511L263.26 283.403ZM245.912 280.393L260.482 284.671L254.251 298.315H239.252L241.413 283.284L245.912 280.393ZM256.45 298.315L262.42 285.241L282.623 291.173L276.435 298.315H256.45ZM267.247 311.972L277.348 300.315H306.947L267.247 311.972ZM319.791 251.333L313.903 292.288L309.69 262.99L319.791 251.333ZM307.957 264.99L311.923 292.573L302.305 271.513L307.957 264.99ZM307.581 262.371L301.392 269.513L292.645 250.36L304.736 242.589L307.581 262.371ZM290.945 251.452L299.952 271.174L295.397 276.431L279.902 258.549L290.945 251.452ZM296.72 277.958L300.865 273.174L310.104 293.404L296.72 277.958ZM291.641 283.82L295.397 279.485L308.592 294.713L291.641 283.82ZM290.318 285.347L307.511 296.396L286.173 290.13L290.318 285.347ZM279.081 298.315L284.733 291.792L306.947 298.315H279.081ZM239.187 284.715L237.231 298.315H223.529L223.064 295.077L239.187 284.715ZM221.214 296.266L221.509 298.315H218.025L221.214 296.266ZM220.901 294.089L214.326 298.315H206.51L197.29 278.127L205.587 268.553L217.743 272.122L220.901 294.089ZM195.851 279.789L204.311 298.315H184.326L182.062 295.702L195.851 279.789ZM186.059 300.315H205.224L206.583 303.291L195.056 310.699L186.059 300.315ZM180.739 297.229L181.68 298.315H179.798L180.739 297.229ZM178.065 300.315H183.413L193.357 311.791L180.739 319.9L168.121 311.791L178.065 300.315ZM179.415 295.702L177.151 298.315H157.166L165.627 279.789L179.415 295.702ZM156.253 300.315H175.418L166.421 310.699L154.894 303.291L156.253 300.315ZM164.187 278.127L154.968 298.315H147.152L140.576 294.089L143.735 272.122L155.891 268.553L164.187 278.127ZM150.264 300.315H154.054L153.194 302.198L150.264 300.315ZM140.263 296.265L143.452 298.315H139.969L140.263 296.265ZM139.681 300.315H146.564L152.355 304.036L142.287 326.083L136.232 324.305L139.681 300.315ZM138.414 295.077L137.948 298.315H124.246L122.291 284.715L138.414 295.077ZM124.534 300.315H137.661L134.293 323.735L127.619 321.776L124.534 300.315ZM120.064 283.284L122.226 298.315H107.226L100.996 284.671L115.566 280.393L120.064 283.284ZM108.14 300.315H122.513L125.51 321.156L116.442 318.494L108.14 300.315ZM100.202 315.81L115.002 320.156L127.298 347.08L100.202 315.81ZM177.189 338.415L137.489 350.072L162.389 334.07L177.189 338.415ZM159.85 333.324L136.408 348.39L151.569 330.893L159.85 333.324ZM162.077 331.893L153.009 329.231L166.798 313.318L178.889 321.089L162.077 331.893ZM165.098 312.226L150.899 328.611L144.225 326.652L154.055 305.129L165.098 312.226ZM143.386 328.49L149.459 330.273L134.896 347.08L143.386 328.49ZM135.944 326.305L141.447 327.921L133.077 346.249L135.944 326.305ZM134.006 325.736L131.097 345.965L127.932 323.952L134.006 325.736ZM117.541 320.901L125.823 323.333L129.117 346.249L117.541 320.901ZM113.339 278.962L100.156 282.833L94.4643 270.37L97.2163 268.601L113.339 278.962ZM95.3667 267.412L93.6249 268.532L92.1778 265.363L95.3667 267.412ZM97.2164 266.223L90.641 261.998L87.3941 254.888L101.927 238.116L114.083 241.685L115.886 254.225L97.2164 266.223ZM99.8178 237.496L86.4807 252.888L78.1786 234.709L79.6149 231.564L99.8178 237.496ZM77.0793 237.116L85.0409 254.55L82.8986 257.022L71.3717 249.614L77.0793 237.116ZM77.6762 230.995L77.0793 232.302L76.2976 230.59L77.6762 230.995ZM73.7584 229.844L75.98 234.709L69.6719 248.522L57.0539 240.413L59.1885 225.566L73.7584 229.844ZM78.5156 229.157L75.1982 228.183L66.8961 210.004H87.2625L78.5156 229.157ZM64.6975 210.004L72.659 227.437L59.4761 223.566L61.4261 210.004H64.6975ZM88.1758 208.004H65.9828L62.7358 200.894L63.8482 193.157L85.1423 186.905L93.4388 196.48L88.1758 208.004ZM62.2094 204.556L63.7841 208.004H61.7136L62.2094 204.556ZM61.7386 193.777L61.1991 197.529L59.752 194.36L61.7386 193.777ZM57.8132 194.929L60.6726 201.191L59.693 208.004H35.4565L34.5584 201.758L57.8132 194.929ZM31.4313 194.061L32.3322 200.327L12.7227 206.085L31.4313 194.061ZM38.7373 244.875L11.6414 213.605L36.5421 229.608L38.7373 244.875ZM36.1655 226.988L12.7227 211.923L34.9372 218.445L36.1655 226.988ZM38.3918 228.419L37.0468 219.065L57.2498 224.997L55.2043 239.224L38.3918 228.419ZM57.5373 222.997L36.7339 216.889L35.744 210.004H59.4055L57.5373 222.997ZM33.7235 210.004L34.6243 216.269L13.2862 210.004H33.7235ZM32.6197 202.327L33.4359 208.004H13.2862L32.6197 202.327ZM26.7919 161.793L8.29236 202.302L14.2969 159.999L14.2974 159.995L20.4542 117.714L26.7919 161.793ZM94.3521 194.48L87.2519 186.285L99.7733 182.609L94.3521 194.48ZM95.792 196.141L102.312 181.863L105.354 180.97L109.241 208.004H106.071L95.792 196.141ZM111.261 208.004L107.293 180.401L120.833 176.425L141.325 189.595L125.373 208.004H111.261ZM118.607 174.994L107.005 178.401L106.26 173.219L108.435 168.457L118.607 174.994ZM142.648 188.068L123.372 175.68L145.357 169.224L150.058 179.516L142.648 188.068ZM144.518 167.386L121.146 174.249L109.274 166.619L120.859 141.253L134.399 145.229L144.518 167.386ZM151.497 177.855L147.296 168.655L157 165.806L156.018 172.638L151.497 177.855ZM157.313 163.629L146.457 166.817L136.938 145.974L158.923 152.43L157.313 163.629ZM158.44 169.842L159.11 165.186L163.623 163.861L158.44 169.842ZM166.046 161.065L159.423 163.01L160.862 152.999L170.566 155.848L166.046 161.065ZM157.914 173.504L167.173 162.819L180.739 158.835L194.305 162.819L203.564 173.504L205.576 187.499L199.702 200.36L187.808 208.004H173.669L161.775 200.36L155.902 187.499L157.914 173.504ZM177.189 157.793L169.595 160.023L172.676 156.468L177.189 157.793ZM191.882 160.023L184.288 157.793L188.802 156.468L191.882 160.023ZM187.362 154.806L180.739 156.751L174.116 154.806L180.739 147.163L187.362 154.806ZM195.432 161.065L190.911 155.848L200.615 152.999L202.055 163.01L195.432 161.065ZM200.328 150.999L189.471 154.187L182.062 145.636L197.067 128.319L200.328 150.999ZM204.164 163.629L202.554 152.43L224.539 145.974L215.021 166.817L204.164 163.629ZM225.639 143.567L202.267 150.43L198.8 126.319L208.041 115.654L231.501 130.73L225.639 143.567ZM216.96 167.386L227.079 145.229L240.619 141.253L252.203 166.619L240.332 174.249L216.96 167.386ZM239.779 139.415L228.178 142.821L233.201 131.823L237.605 134.653L239.779 139.415ZM253.903 165.527L242.557 140.684L245.599 139.791L258.804 148.277L256.57 163.813L253.903 165.527ZM243.373 138.36L241.718 138.846L240.717 136.653L243.373 138.36ZM259.116 146.1L248.138 139.045L260.659 135.368L259.116 146.1ZM260.972 133.192L245.912 137.614L239.18 133.288L235.856 126.009L242.376 111.731H264.058L260.972 133.192ZM229.335 111.731H240.178L234.756 123.602L229.335 111.731ZM227.137 111.731L233.657 126.009L232.34 128.892L209.364 114.127L211.44 111.731H227.137ZM236.068 131.288L234.04 129.985L234.756 128.416L236.068 131.288ZM208.794 111.731L207.665 113.034L205.637 111.731H208.794ZM196.17 108.024L198.825 109.731H196.415L196.17 108.024ZM196.703 111.731H201.938L206.341 114.561L198.423 123.699L196.703 111.731ZM166.795 111.731H194.682L196.69 125.699L180.739 144.108L164.787 125.699L166.795 111.731ZM164.41 128.319L179.415 145.636L172.006 154.187L161.15 150.999L164.41 128.319ZM226.223 109.731H213.173L221.719 99.8685L226.223 109.731ZM258.796 162.383L260.653 149.465L269.774 155.327L258.796 162.383ZM258.419 165.002L271.624 156.516L289.864 168.238L275.665 184.624L260.605 180.202L257.281 172.923L258.419 165.002ZM277.775 185.243L291.564 169.33L294.472 171.199L297.316 190.981L277.775 185.243ZM294.095 168.58L292.887 167.803L293.828 166.717L294.095 168.58ZM293.451 164.098L291.187 166.711L273.474 155.327L290.607 144.316L293.451 164.098ZM261.704 182.609L274.225 186.285L267.125 194.48L261.704 182.609ZM259.165 181.863L265.685 196.141L255.406 208.004H252.237L256.123 180.97L259.165 181.863ZM251.949 210.004H253.673L251.606 212.39L251.949 210.004ZM251.08 216.051L256.32 210.004H272.016L281.023 229.726L260.22 235.834L249.941 223.972L251.08 216.051ZM249.929 210.004L249.184 215.185L245.755 219.142L237.837 210.004H249.929ZM247.079 220.669L248.657 218.847L248.208 221.972L247.079 220.669ZM235.191 210.004L244.432 220.669L226.17 241.744L214.299 234.115L210.832 210.004H235.191ZM227.87 242.836L245.755 222.196L247.831 224.591L245.597 240.128L230.537 244.55L227.87 242.836ZM214.675 236.734L224.847 243.271L221.419 247.227L216.396 248.702L214.675 236.734ZM224.968 246.185L226.547 244.363L227.998 245.296L224.968 246.185ZM216.684 250.702L218.996 250.023L216.929 252.409L216.684 250.702ZM217.306 255.029L222.546 248.981L230.224 246.726L243.428 255.213L240.343 276.674L219.539 270.565L217.306 255.029ZM214.745 251.272L215.196 254.409L204.917 266.272L189.856 261.849L188.54 258.966L214.745 251.272ZM207.027 266.891L215.573 257.029L217.43 269.946L207.027 266.891ZM190.956 264.257L203.477 267.933L196.377 276.127L190.956 264.257ZM188.417 263.511L194.937 277.789L180.739 294.175L166.54 277.789L173.061 263.511L180.739 261.257L188.417 263.511ZM170.522 264.257L165.1 276.127L158 267.933L170.522 264.257ZM171.621 261.849L156.56 266.272L146.281 254.409L146.732 251.272L172.938 258.966L171.621 261.849ZM144.794 250.702L144.548 252.409L142.481 250.023L144.794 250.702ZM138.931 248.981L144.172 255.029L141.938 270.565L121.135 276.674L118.049 255.213L131.254 246.726L138.931 248.981ZM145.081 248.702L140.058 247.227L136.63 243.271L146.802 236.734L145.081 248.702ZM134.93 244.363L136.509 246.185L133.48 245.296L134.93 244.363ZM147.179 234.115L135.307 241.744L117.045 220.669L126.287 210.004H150.645L147.179 234.115ZM115.722 222.196L133.607 242.836L130.941 244.55L115.88 240.128L113.646 224.591L115.722 222.196ZM123.64 210.004L115.722 219.142L112.294 215.185L111.549 210.004H123.64ZM112.82 218.847L114.399 220.669L113.27 221.972L112.82 218.847ZM109.528 210.004L109.871 212.39L107.804 210.004H109.528ZM105.158 210.004L110.398 216.051L111.537 223.972L101.258 235.834L80.4543 229.726L89.4612 210.004H105.158ZM94.8786 198.141L103.425 208.004H90.3745L94.8786 198.141ZM113.77 239.509L103.367 236.454L111.913 226.591L113.77 239.509ZM117.736 253.036L116.193 242.304L128.714 245.981L117.736 253.036ZM150.933 208.004H128.02L143.025 190.687L152.543 196.804L150.933 208.004ZM152.856 194.628L144.348 189.16L150.971 181.516L153.838 187.795L152.856 194.628ZM154.365 184.134L152.411 179.855L155.491 176.3L154.365 184.134ZM154.706 195.817L155.375 191.16L158.663 198.36L154.706 195.817ZM154.393 197.993L160.2 201.725L163.067 208.004H152.953L154.393 197.993ZM152.666 210.004H163.981L168.681 220.296L149.405 232.684L152.666 210.004ZM170.381 219.204L166.179 210.004H173.082L178.889 213.736L170.381 219.204ZM149.028 235.303L169.52 222.134L179.639 244.292L173.777 257.128L147.02 249.272L149.028 235.303ZM180.739 241.884L171.22 221.042L180.739 214.924L190.257 221.042L180.739 241.884ZM175.716 257.697L180.739 246.699L185.762 257.697L180.739 259.172L175.716 257.697ZM187.7 257.128L181.838 244.291L191.957 222.134L212.449 235.303L214.457 249.272L187.7 257.128ZM208.811 210.004L212.072 232.684L192.796 220.296L197.497 210.004H208.811ZM195.298 210.004L191.097 219.204L182.588 213.736L188.395 210.004H195.298ZM184.696 210.004L180.739 212.547L176.781 210.004H184.696ZM196.211 208.004H191.507L198.166 203.725L196.211 208.004ZM198.41 208.004L201.278 201.725L207.085 197.993L208.524 208.004H198.41ZM210.544 208.004L208.934 196.804L218.453 190.687L233.458 208.004H210.544ZM217.13 189.16L208.621 194.628L207.639 187.795L210.506 181.516L217.13 189.16ZM236.104 208.004L220.153 189.595L240.645 176.425L254.185 180.401L250.216 208.004H236.104ZM238.105 175.68L218.829 188.068L211.42 179.516L216.12 169.224L238.105 175.68ZM204.477 165.806L214.181 168.655L209.98 177.855L205.46 172.638L204.477 165.806ZM205.986 176.3L209.067 179.855L207.112 184.134L205.986 176.3ZM202.368 165.186L203.037 169.842L197.854 163.861L202.368 165.186ZM254.472 178.401L242.871 174.994L253.043 168.457L255.217 173.219L254.472 178.401ZM255.744 169.558L254.742 167.365L256.193 166.433L255.744 169.558ZM256.411 178.97L256.754 176.584L258.066 179.456L256.411 178.97ZM206.102 191.16L206.772 195.817L202.814 198.36L206.102 191.16ZM184.288 260.214L186.601 259.535L187.317 261.104L184.288 260.214ZM174.876 259.535L177.189 260.214L174.16 261.104L174.876 259.535ZM169.97 208.004H165.266L163.312 203.725L169.97 208.004ZM99.066 267.412L116.199 256.401L119.196 277.243L115.878 278.217L99.066 267.412ZM118.105 279.648L119.483 279.243L119.688 280.665L118.105 279.648ZM138.727 292.9L121.914 282.096L121.422 278.674L141.625 272.741L138.727 292.9ZM144.048 269.946L145.905 257.029L154.451 266.891L144.048 269.946ZM222.751 292.9L219.852 272.741L240.055 278.674L239.563 282.096L222.751 292.9ZM241.79 280.665L241.994 279.243L243.373 279.648L241.79 280.665ZM262.411 267.412L245.599 278.217L242.282 277.243L245.278 256.401L262.411 267.412ZM245.284 242.304L243.741 253.036L232.763 245.981L245.284 242.304ZM258.11 236.454L247.707 239.509L249.564 226.591L258.11 236.454ZM271.103 208.004H258.053L266.599 198.141L271.103 208.004ZM105.284 166.433L106.735 167.365L105.734 169.558L105.284 166.433ZM104.723 176.584L105.066 178.97L103.412 179.456L104.723 176.584ZM84.5984 258.114L85.9542 256.55L87.529 259.998L84.5984 258.114ZM208.283 302.198L207.423 300.315H211.214L208.283 302.198ZM299.764 208.004H297.693L299.268 204.556L299.764 208.004ZM252.084 85.6602L251.224 87.5436L248.741 84.6788L252.084 85.6602ZM257.306 55.7448L251.981 52.3226L270.69 40.2994L257.306 55.7448ZM90.6217 64.4525L87.4568 42.4399L95.9468 61.0303L90.6217 64.4525ZM89.2761 41.6091L102.471 56.8372L97.6466 59.9379L89.2761 41.6091ZM113.195 52.3226L121.146 47.2133L140.321 52.8438L130.909 63.7063L113.195 52.3226ZM132.609 64.7987L142.431 53.4632L156.822 57.6889L150.514 71.5017L145.383 73.0083L132.609 64.7987ZM153.053 70.7561L158.761 58.2582L171.908 62.1185L171.442 65.3566L153.053 70.7561ZM173.552 64.7371L173.847 62.6877L177.189 63.6692L173.552 64.7371ZM151.954 73.1633L171.13 67.5329L168.231 87.6919L150.518 76.3083L151.954 73.1633ZM149.415 73.9089L148.818 75.2159L147.609 74.4391L149.415 73.9089ZM110.254 87.5436L109.394 85.6602L112.736 84.6788L110.254 87.5436ZM118.708 80.8408L120.989 78.2081L122.345 79.7728L118.708 80.8408ZM91.9414 111.731H95.3988L98.3954 132.573L78.854 126.835L91.9414 111.731ZM89.2951 111.731L76.7444 126.215L73.6055 125.294L75.5555 111.731H89.2951ZM72.8222 130.742L73.318 127.294L75.3046 127.877L72.8222 130.742ZM67.5919 139.832L69.8732 137.199L69.3337 140.951L67.5919 139.832ZM66.2688 141.359L69.0208 143.128L66.2933 162.098L57.2958 151.714L66.2688 141.359ZM187.925 64.7371L184.288 63.6692L187.631 62.6877L187.925 64.7371ZM190.035 65.3566L189.569 62.1185L202.716 58.2582L208.424 70.7561L190.035 65.3566Z" stroke="#5573A0" stroke-width="2"/>
<path fill-rule="evenodd" clip-rule="evenodd" d="M189.598 8.09612C189.598 12.5675 185.973 16.1922 181.501 16.1922C177.03 16.1922 173.405 12.5675 173.405 8.09612C173.405 3.62476 177.03 0 181.501 0C185.973 0 189.598 3.62476 189.598 8.09612ZM139.254 352.106C139.254 356.577 135.629 360.202 131.158 360.202C126.686 360.202 123.062 356.577 123.062 352.106C123.062 347.635 126.686 344.01 131.158 344.01C135.629 344.01 139.254 347.635 139.254 352.106ZM231.842 360.202C236.314 360.202 239.938 356.577 239.938 352.106C239.938 347.635 236.314 344.01 231.842 344.01C227.371 344.01 223.746 347.635 223.746 352.106C223.746 356.577 227.371 360.202 231.842 360.202ZM322.446 298.971C322.446 303.443 318.821 307.067 314.35 307.067C309.879 307.067 306.254 303.443 306.254 298.971C306.254 294.5 309.879 290.875 314.35 290.875C318.821 290.875 322.446 294.5 322.446 298.971ZM48.6498 307.067C53.1212 307.067 56.746 303.443 56.746 298.971C56.746 294.5 53.1212 290.875 48.6498 290.875C44.1785 290.875 40.5537 294.5 40.5537 298.971C40.5537 303.443 44.1785 307.067 48.6498 307.067ZM16.1922 208.069C16.1922 212.54 12.5675 216.165 8.09612 216.165C3.62476 216.165 0 212.54 0 208.069C0 203.597 3.62476 199.973 8.09612 199.973C12.5675 199.973 16.1922 203.597 16.1922 208.069ZM354.904 216.165C359.375 216.165 363 212.54 363 208.069C363 203.597 359.375 199.973 354.904 199.973C350.432 199.973 346.808 203.597 346.808 208.069C346.808 212.54 350.432 216.165 354.904 216.165ZM347.617 110.184C347.617 114.655 343.992 118.28 339.521 118.28C335.05 118.28 331.425 114.655 331.425 110.184C331.425 105.713 335.05 102.088 339.521 102.088C343.992 102.088 347.617 105.713 347.617 110.184ZM276.593 45.5614C281.065 45.5614 284.689 41.9366 284.689 37.4653C284.689 32.9939 281.065 29.3691 276.593 29.3691C272.122 29.3691 268.497 32.9939 268.497 37.4653C268.497 41.9366 272.122 45.5614 276.593 45.5614ZM94.5028 37.4653C94.5028 41.9366 90.878 45.5614 86.4067 45.5614C81.9353 45.5614 78.3105 41.9366 78.3105 37.4653C78.3105 32.9939 81.9353 29.3691 86.4067 29.3691C90.878 29.3691 94.5028 32.9939 94.5028 37.4653ZM23.4787 118.28C27.9501 118.28 31.5748 114.655 31.5748 110.184C31.5748 105.713 27.9501 102.088 23.4787 102.088C19.0073 102.088 15.3826 105.713 15.3826 110.184C15.3826 114.655 19.0073 118.28 23.4787 118.28Z" fill="#4989A7"/>
</svg>
