<svg width="24" height="24" viewBox="0 0 24 24" fill="none" xmlns="http://www.w3.org/2000/svg">
<path d="M13.537 12.0005C13.537 15.7645 10.507 18.8155 6.769 18.8155C3.03 18.8155 0 15.7655 0 12.0005C0 8.23555 3.03 5.18555 6.769 5.18555C10.507 5.18555 13.537 8.23555 13.537 12.0005ZM20.963 12.0005C20.963 15.5435 19.448 18.4155 17.578 18.4155C15.709 18.4155 14.194 15.5425 14.194 12.0005C14.194 8.45755 15.709 5.58455 17.578 5.58455C19.448 5.58455 20.963 8.45755 20.963 12.0005ZM24 12.0005C24 15.1745 23.467 17.7475 22.81 17.7475C22.152 17.7475 21.62 15.1735 21.62 12.0005C21.62 8.82655 22.152 6.25255 22.81 6.25255C23.468 6.25255 24 8.82555 24 12.0005Z" fill="#F4FCFF"/>
</svg>
