<svg width="40" height="40" viewBox="0 0 40 40" fill="none" xmlns="http://www.w3.org/2000/svg">
<rect width="40" height="40" rx="8" fill="url(#paint0_linear_959_6907)"/>
<rect width="40" height="40" rx="8" fill="url(#paint1_linear_959_6907)" fill-opacity="0.2"/>
<path d="M17.256 33.1635L19.9838 20.164L6.98421 22.8918L17.256 33.1635Z" stroke="white" stroke-width="0.136364"/>
<path d="M33.1054 17.2076L20.1583 19.9866L22.9372 7.03939L33.1054 17.2076Z" stroke="white" stroke-width="0.136364"/>
<path d="M20.0352 20.0371L27.6719 12.2846L12.3984 12.2846L20.0352 20.0371Z" fill="white" fill-opacity="0.25"/>
<path d="M20.0352 20.0371L27.6719 12.2846L12.3984 12.2846L20.0352 20.0371Z" fill="url(#paint2_linear_959_6907)"/>
<path d="M20.0352 20.0371L27.6719 27.7896H12.3984L20.0352 20.0371Z" fill="white" fill-opacity="0.25"/>
<path d="M20.0352 20.0371L27.6719 27.7896H12.3984L20.0352 20.0371Z" fill="url(#paint3_linear_959_6907)"/>
<path d="M20.0328 20.0375L19.951 9.15568L9.15099 19.9557L20.0328 20.0375Z" fill="white" fill-opacity="0.25"/>
<path d="M20.0328 20.0375L19.951 9.15568L9.15099 19.9557L20.0328 20.0375Z" fill="url(#paint4_linear_959_6907)"/>
<path d="M20.0328 20.0375L30.9146 20.1193L20.1146 30.9193L20.0328 20.0375Z" fill="white" fill-opacity="0.25"/>
<path d="M20.0328 20.0375L30.9146 20.1193L20.1146 30.9193L20.0328 20.0375Z" fill="url(#paint5_linear_959_6907)"/>
<defs>
<linearGradient id="paint0_linear_959_6907" x1="20" y1="0" x2="20" y2="40" gradientUnits="userSpaceOnUse">
<stop stop-color="#0B0B0B"/>
<stop offset="1"/>
</linearGradient>
<linearGradient id="paint1_linear_959_6907" x1="20" y1="2.70939e-09" x2="20" y2="59" gradientUnits="userSpaceOnUse">
<stop stop-color="white"/>
<stop offset="1" stop-color="white" stop-opacity="0"/>
</linearGradient>
<linearGradient id="paint2_linear_959_6907" x1="27.6719" y1="16.1609" x2="26.1028" y2="11.5236" gradientUnits="userSpaceOnUse">
<stop offset="0.0001" stop-color="#DDF8FF"/>
<stop offset="1" stop-color="#86DAFF"/>
</linearGradient>
<linearGradient id="paint3_linear_959_6907" x1="27.6719" y1="23.9133" x2="26.1028" y2="28.5507" gradientUnits="userSpaceOnUse">
<stop offset="0.0001" stop-color="#DDF8FF"/>
<stop offset="1" stop-color="#86DAFF"/>
</linearGradient>
<linearGradient id="paint4_linear_959_6907" x1="22.6919" y1="11.8966" x2="18.3032" y2="9.7271" gradientUnits="userSpaceOnUse">
<stop offset="0.0001" stop-color="#DDF8FF"/>
<stop offset="1" stop-color="#95FFD5"/>
</linearGradient>
<linearGradient id="paint5_linear_959_6907" x1="28.1737" y1="17.3784" x2="30.3432" y2="21.7671" gradientUnits="userSpaceOnUse">
<stop offset="0.0001" stop-color="#DDF8FF"/>
<stop offset="1" stop-color="#95FFD5"/>
</linearGradient>
</defs>
</svg>
