<svg width="461" height="371" viewBox="0 0 461 371" fill="none" xmlns="http://www.w3.org/2000/svg">
<path d="M32.6132 354.08L230.5 11.3301L428.387 354.08H32.6132Z" stroke="#5573A0" stroke-width="2"/>
<path fill-rule="evenodd" clip-rule="evenodd" d="M239.312 9.0748C239.312 14.0867 235.25 18.1496 230.238 18.1496C225.226 18.1496 221.163 14.0867 221.163 9.0748C221.163 4.06293 225.226 0 230.238 0C235.25 0 239.312 4.06293 239.312 9.0748ZM46.2707 351.95C46.2707 356.962 42.2078 361.025 37.1959 361.025C32.184 361.025 28.1211 356.962 28.1211 351.95C28.1211 346.938 32.184 342.875 37.1959 342.875C42.2078 342.875 46.2707 346.938 46.2707 351.95ZM424.722 361.025C429.734 361.025 433.797 356.962 433.797 351.95C433.797 346.938 429.734 342.875 424.722 342.875C419.71 342.875 415.647 346.938 415.647 351.95C415.647 356.962 419.71 361.025 424.722 361.025Z" fill="#4989A7"/>
</svg>
