<svg width="24" height="24" viewBox="0 0 24 24" fill="none" xmlns="http://www.w3.org/2000/svg">
<path d="M24 4.55838C23.108 4.94938 22.157 5.20838 21.165 5.33438C22.1951 4.72354 22.9654 3.75612 23.33 2.61538C22.3655 3.18738 21.3103 3.59019 20.21 3.80638C19.5355 3.0855 18.6598 2.58424 17.6966 2.36777C16.7335 2.1513 15.7274 2.22964 14.8094 2.59261C13.8914 2.95557 13.1038 3.58637 12.549 4.40297C11.9943 5.21957 11.6981 6.18419 11.699 7.17138C11.699 7.56138 11.732 7.93538 11.813 8.29238C7.722 8.09338 4.103 6.13238 1.671 3.14638C1.23125 3.90152 0.999063 4.75953 0.998 5.63338C0.998 7.33738 1.875 8.84738 3.183 9.72238C2.40413 9.70153 1.6417 9.49369 0.96 9.11638V9.17038C0.961284 10.3066 1.35396 11.4077 2.07193 12.2883C2.7899 13.1689 3.78933 13.7753 4.902 14.0054C4.48104 14.1161 4.04727 14.1706 3.612 14.1674C3.29922 14.173 2.98674 14.1448 2.68 14.0834C3.318 16.0314 5.127 17.4634 7.278 17.5104C5.53657 18.8724 3.38884 19.6115 1.178 19.6094C0.774 19.6094 0.387 19.5914 0 19.5414C2.24985 20.9911 4.87152 21.7581 7.548 21.7494C16.602 21.7494 21.552 14.2494 21.552 7.74838C21.552 7.53138 21.544 7.32138 21.534 7.11238C22.5044 6.41801 23.3401 5.55252 24 4.55838Z" fill="#F4FCFF"/>
</svg>
